# xmcd
#
# Track frame offsets:
#	150
#	13957
#	25423
#	38442
#	51448
#	64969
#	78672
#	91962
#	105159
#	117066
#	131549
#	144167
#	158645
#	171767
#	181804
#	188699
#	196822
#	202617
#	211642
#	221222
#	229693
#	240205
#	249618
#	258933
#	270151
#	278046
#
# Disc length: 3827 seconds
#
# Revision: 1
# Processed by: cddbd v1.4PL0 Copyright (c) Steve Scherf et al.
# Submitted via: audiograbber 1.81.03
#
DISCID=500ef11a
DTITLE=Red Foley - Tennessee Saturday Night Disk 2
DYEAR=1900
DGENRE=Country
TTITLE0=Birmingham Bounce
TTITLE1=Mississippi
TTITLE2=Old Kentucky Fox Chase
TTITLE3=Hillbilly Fever
TTITLE4=Hobo Boogie
TTITLE5=Goodnight Irene (& Ernest Tubb)
TTITLE6=Night Train To Memphis
TTITLE7=Crawdad Song
TTITLE8=Hot Rod Race
TTITLE9=Peace In The Valley
TTITLE10=Alabama Jubilee
TTITLE11=Midnight
TTITLE12=The Love Bug
TTITLE13=Giles County
TTITLE14=No One To Cry To
TTITLE15=Home In San Antone
TTITLE16=Thinking Of The One I Love
TTITLE17=Foggy River
TTITLE18=Cheatin' On You Baby
TTITLE19=I Only Want a Buddy Not A Sweetheart
TTITLE20=Beaver Creek
TTITLE21=Old MacDonald Had A Farm
TTITLE22=Hearts Of Stone
TTITLE23=Renfro Valley Home
TTITLE24=Salty Dog Rag
TTITLE25=Milk Bucket Boogie
EXTD=
EXTT0=
EXTT1=
EXTT2=
EXTT3=
EXTT4=
EXTT5=
EXTT6=
EXTT7=
EXTT8=
EXTT9=
EXTT10=
EXTT11=
EXTT12=
EXTT13=
EXTT14=
EXTT15=
EXTT16=
EXTT17=
EXTT18=
EXTT19=
EXTT20=
EXTT21=
EXTT22=
EXTT23=
EXTT24=
EXTT25=
PLAYORDER=
